<svg width="200" height="232" viewBox="0 0 200 232" fill="none" xmlns="http://www.w3.org/2000/svg">
<path fill-rule="evenodd" clip-rule="evenodd" d="M93.0149 11.9515L94.6946 11.9811L94.7907 1.70959L93.111 1.67993L93.1267 0L100.757 0.134751C102.277 0.161589 103.57 0.496457 104.636 1.13936C105.702 1.76626 106.495 2.59635 107.013 3.62963C107.531 4.6469 107.785 5.75552 107.774 6.95546C107.761 8.3314 107.486 9.53469 106.948 10.5653C106.41 11.596 105.611 12.3979 104.549 12.9713C103.488 13.5286 102.19 13.7937 100.654 13.7666L92.9992 13.6314L93.0149 11.9515ZM100.286 12.0799C101.87 12.1078 103.042 11.6565 103.802 10.7258C104.579 9.7954 104.975 8.53824 104.99 6.95431C105.003 5.49837 104.631 4.28364 103.872 3.31013C103.113 2.33661 101.974 1.83643 100.454 1.80959L97.4783 1.75705L97.3822 12.0286L100.286 12.0799ZM71.8944 15.0032L70.3111 15.2843L70.4684 16.9569L76.0688 15.9625L75.9115 14.2899L74.3047 14.5752L75.1176 10.9569L79.7255 10.1387L81.2047 13.35L79.527 13.6479L79.6843 15.3205L85.6155 14.2674L85.4582 12.5948L83.9459 12.8633L79.2033 3.30776L80.6684 3.04762L80.5111 1.375L73.0203 2.70506L73.1776 4.37768L74.619 4.12174L71.8944 15.0032ZM76.8898 3.74284L79.1024 8.62167L75.4633 9.26782L76.748 3.76801L76.8898 3.74284ZM55.4789 22.5191C54.0902 23.0535 52.805 23.2269 51.6234 23.0392C50.4386 22.8357 49.448 22.3209 48.6515 21.4946C47.8551 20.6683 47.3258 19.6124 47.0638 18.3268C46.8018 17.0412 46.8533 15.7534 47.2184 14.4632C47.5835 13.173 48.2338 12.0181 49.1694 10.9987C50.105 9.97925 51.2671 9.20231 52.6558 8.66787C54.0296 8.13918 55.3089 7.97654 56.4937 8.17996C57.6786 8.38338 58.6708 8.90607 59.4704 9.74803C60.2669 10.5743 60.7961 11.6302 61.0581 12.9158C61.3202 14.2014 61.2686 15.4893 60.9035 16.7795C60.5502 18.0482 59.9057 19.1924 58.9702 20.2118C58.0314 21.2156 56.8676 21.9847 55.4789 22.5191ZM55.1003 20.6613C55.9813 20.3222 56.7056 19.8068 57.2731 19.115C57.8524 18.4017 58.2355 17.5949 58.4224 16.6945C58.6242 15.7884 58.6276 14.8572 58.4327 13.9008C58.2378 12.9445 57.8829 12.1512 57.3679 11.5209C56.8679 10.8849 56.2372 10.4767 55.4758 10.2963C54.7261 10.0945 53.9107 10.1631 53.0297 10.5022C52.1338 10.847 51.4036 11.3731 50.8392 12.0806C50.2717 12.7724 49.8886 13.5793 49.69 14.5011C49.5031 15.4014 49.5071 16.3298 49.7021 17.2861C49.897 18.2425 50.2444 19.0387 50.7445 19.6747C51.2594 20.305 51.8901 20.7132 52.6366 20.8993C53.3831 21.0854 54.2043 21.0061 55.1003 20.6613ZM32.4954 32.361L31.027 33.2255L31.5271 34.8294L41.3096 29.0701L39.6236 23.6628L37.907 24.6734L39.0929 28.4768L34.7911 31.0095L31.7121 21.1344L33.1805 20.2699L32.7018 18.7347L27.4693 21.8153L27.948 23.3504L29.4164 22.4859L32.4954 32.361ZM100.502 123.99L99.8024 197.974L96.8025 197.945L97.5181 122.277L64.567 190.398L61.8663 189.091L94.6822 121.25L36.9531 169.693L35.0247 167.395L91.8744 119.69L21.765 144.026L20.7812 141.192L90.3605 117.04L16.7103 116.527L16.7312 113.527L91.4223 114.047L22.4307 85.4261L23.5802 82.6551L92.5771 111.279L39.4622 58.7555L41.5716 56.6223L95.4328 109.883L69.8158 38.5985L72.639 37.5839L97.6606 107.212L98.3602 33.2278L101.36 33.2562L100.645 108.924L133.596 40.8038L136.296 42.1102L103.48 109.951L161.209 61.509L163.138 63.8071L106.288 111.511L176.398 87.1751L177.381 90.0092L107.802 114.162L181.452 114.675L181.431 117.675L106.74 117.154L175.732 145.776L174.582 148.547L105.586 119.923L158.7 172.446L156.591 174.579L102.73 121.318L128.347 192.603L125.524 193.618L100.502 123.99ZM2.64241 57.0973L4.43875 55.2622L5.62649 57.4575L3.83016 59.2926L2.64241 57.0973ZM13.5912 46.2559L11.6615 47.9504L12.7141 50.2136L14.6437 48.5192L13.5912 46.2559ZM21.1565 39.7241L23.2139 38.1872L24.1321 40.5082L22.0748 42.045L21.1565 39.7241ZM117.08 13.6557L115.402 13.3578L115.245 15.0305L121.247 16.0962L121.404 14.4236L119.727 14.1257L120.688 3.89877L122.366 4.19667L122.523 2.52405L116.521 1.45833L116.364 3.13095L118.042 3.42885L117.08 13.6557ZM129.484 16.3054L131.139 16.8797L132.996 6.77694L131.34 6.20256L131.644 4.55023L136.202 6.13175L141.051 18.4613L142.587 10.1052L140.886 9.51509L141.19 7.86276L146.314 9.64098L146.01 11.2933L144.4 10.7347L142.24 22.4898L139.723 21.6164L134.573 8.42927L132.907 17.4935L134.608 18.0836L134.304 19.7359L129.18 17.9577L129.484 16.3054ZM165.906 28.1276L166.141 27.3462L161.55 24.7386L161.045 26.4164L163.403 27.7557C162.997 28.8886 162.359 29.5486 161.488 29.7357C160.636 29.9154 159.663 29.7125 158.568 29.1268C157.274 28.3919 156.381 27.3552 155.887 26.0166C155.408 24.6859 155.403 23.2391 155.874 21.6763C156.321 20.1901 157.058 19.2276 158.086 18.7888C159.128 18.358 160.309 18.5179 161.631 19.2686C162.536 19.7822 163.252 20.4585 163.782 21.2974C164.312 22.1363 164.626 23.0952 164.725 24.174L166.207 25.0155L167.485 20.7637L165.774 19.7918L165.304 21.3546C165.029 20.5349 164.597 19.7782 164.008 19.0845C163.437 18.3835 162.713 17.7841 161.837 17.2863C160.584 16.5751 159.386 16.2264 158.242 16.2402C157.102 16.2387 156.106 16.5971 155.255 17.3155C154.404 18.0339 153.78 19.052 153.383 20.3696C152.982 21.7026 152.892 23.0326 153.112 24.3594C153.346 25.6941 153.871 26.9255 154.688 28.0534C155.52 29.1892 156.603 30.1364 157.939 30.895C159.831 31.9696 161.483 32.2712 162.895 31.7997C164.312 31.3128 165.316 30.0888 165.906 28.1276ZM172.543 37.5854L174.601 39.1223L173.683 41.4432L171.625 39.9063L172.543 37.5854ZM184.036 47.1907L182.107 45.4963L181.054 47.7595L182.984 49.4539L184.036 47.1907ZM191.212 54.3307L193.009 56.1659L191.821 58.3612L190.025 56.526L191.212 54.3307ZM197.772 176.258L199.611 174.465L198.38 172.294L196.541 174.087L197.772 176.258ZM190.139 183.581L188.171 185.231L187.077 182.987L189.045 181.337L190.139 183.581ZM178.084 193.27L180.175 191.779L179.219 189.473L177.128 190.964L178.084 193.27ZM169.809 198.256L168.323 199.091L171.536 208.923L173.021 208.089L173.52 209.617L168.227 212.591L167.727 211.063L169.213 210.228L166.001 200.396L161.648 202.841L162.886 206.628L161.149 207.604L159.39 202.22L169.287 196.659L169.809 198.256ZM148.362 208.357C147.169 208.154 145.874 208.309 144.477 208.822C143.08 209.335 141.912 210.085 140.973 211.071C140.037 212.073 139.395 213.203 139.049 214.461C138.69 215.74 138.648 217.021 138.922 218.304C139.196 219.587 139.738 220.645 140.547 221.478C141.36 222.327 142.365 222.861 143.562 223.079C144.758 223.298 146.048 223.154 147.429 222.646C148.826 222.133 149.993 221.376 150.929 220.374C151.865 219.372 152.512 218.231 152.87 216.952C153.229 215.673 153.271 214.392 152.997 213.109C152.723 211.826 152.181 210.768 151.372 209.935C150.562 209.101 149.559 208.575 148.362 208.357ZM142.693 212.186C143.26 211.505 143.987 211.002 144.873 210.676C145.774 210.345 146.602 210.277 147.356 210.473C148.111 210.668 148.75 211.083 149.274 211.717C149.783 212.357 150.14 213.154 150.344 214.109C150.548 215.063 150.559 215.987 150.377 216.881C150.184 217.796 149.803 218.593 149.236 219.274C148.672 219.971 147.94 220.484 147.038 220.815C146.152 221.141 145.33 221.198 144.573 220.987C143.803 220.797 143.164 220.382 142.655 219.742C142.131 219.108 141.767 218.314 141.563 217.359C141.359 216.405 141.355 215.478 141.552 214.579C141.734 213.685 142.114 212.888 142.693 212.186ZM128.619 216.146L127.034 216.415L124.35 227.263L125.793 227.018L125.958 228.69L118.457 229.961L118.292 228.289L119.759 228.041L114.966 218.46L113.452 218.717L113.287 217.045L119.226 216.038L119.391 217.71L117.711 217.995L119.207 221.214L123.821 220.432L124.62 216.824L123.011 217.097L122.847 215.425L128.455 214.474L128.619 216.146ZM119.838 222.734L122.076 227.624L122.218 227.6L123.482 222.116L119.838 222.734ZM103.162 219.447L104.842 219.477L104.857 217.797L97.2026 217.661C95.6669 217.634 94.3684 217.899 93.3072 218.457C92.2458 219.03 91.4463 219.832 90.9087 220.863C90.371 221.893 90.0958 223.097 90.0829 224.473C90.0717 225.672 90.3253 226.781 90.8438 227.798C91.3622 228.832 92.1544 229.662 93.2206 230.289C94.2866 230.932 95.5794 231.266 97.0992 231.293L104.73 231.428L104.746 229.748L103.066 229.718L103.162 219.447ZM94.0542 220.702C94.8149 219.772 95.9871 219.32 97.5709 219.348L100.474 219.399L100.378 229.671L97.4029 229.618C95.8831 229.592 94.7438 229.091 93.9849 228.118C93.226 227.144 92.8533 225.93 92.8669 224.474C92.8817 222.89 93.2775 221.633 94.0542 220.702ZM81.3958 218.087L79.7157 217.802L78.7084 228.025L80.3885 228.309L80.2238 229.981L74.2134 228.963L74.3782 227.291L76.0582 227.576L77.0655 217.353L75.3854 217.068L75.5502 215.397L81.5605 216.415L81.3958 218.087ZM64.9599 214.613L66.6231 215.164L66.9407 213.514L61.7918 211.809L61.4741 213.459L63.1828 214.024L61.44 223.074L56.3466 210.006L53.8177 209.168L51.5575 220.904L49.9399 220.369L49.6222 222.018L54.7712 223.724L55.0889 222.074L53.3802 221.508L54.9868 213.165L59.7835 225.384L64.3629 226.9L64.6806 225.25L63.0174 224.7L64.9599 214.613ZM28.6612 204.399L28.9065 203.621C29.5222 201.668 30.5517 200.439 31.9952 199.935C33.4339 199.446 35.1098 199.72 37.0228 200.757C38.3732 201.489 39.4658 202.412 40.3007 203.526C41.1214 204.632 41.645 205.844 41.8714 207.164C42.0836 208.476 41.9806 209.796 41.5621 211.124C41.1485 212.436 40.5063 213.455 39.6354 214.18C38.7646 214.905 37.7503 215.275 36.5924 215.291C35.4298 215.322 34.2155 214.994 32.9495 214.308C32.0633 213.828 31.3331 213.244 30.7589 212.558C30.1659 211.879 29.7332 211.135 29.4611 210.327L28.9705 211.883L27.2403 210.946L28.575 206.711L30.0731 207.523C30.1646 208.591 30.4759 209.537 31.0068 210.361C31.5377 211.184 32.2603 211.844 33.1747 212.34C34.511 213.064 35.7101 213.205 36.772 212.762C37.8198 212.311 38.577 211.346 39.0435 209.866C39.5341 208.309 39.5414 206.875 39.0656 205.563C38.5757 204.243 37.6767 203.229 36.3685 202.52C35.2617 201.956 34.2747 201.769 33.4074 201.96C32.5213 202.159 31.8674 202.823 31.4456 203.952L33.8299 205.244L33.3032 206.915L28.6612 204.399ZM19.3699 192.479L21.4609 193.969L22.4167 191.664L20.3257 190.173L19.3699 192.479ZM11.413 186.086L9.44473 184.436L10.5381 182.193L12.5064 183.842L11.413 186.086ZM0 175.487L1.83873 177.279L3.06973 175.108L1.231 173.315L0 175.487Z" fill="white"/>
</svg>
