<svg width="100" height="132" viewBox="0 0 200 232" fill="none" xmlns="http://www.w3.org/2000/svg">
<path fill-rule="evenodd" clip-rule="evenodd" d="M93.2334 12.3375L94.9131 12.3671L95.0092 2.09557L93.3295 2.06591L93.3452 0.385986L100.976 0.520738C102.496 0.547575 103.789 0.882444 104.855 1.52534C105.921 2.15224 106.713 2.98233 107.231 4.01561C107.75 5.03289 108.003 6.1415 107.992 7.34145C107.979 8.71739 107.704 9.92068 107.166 10.9513C106.629 11.9819 105.829 12.7839 104.768 13.3573C103.707 13.9146 102.408 14.1797 100.872 14.1526L93.2177 14.0174L93.2334 12.3375ZM100.504 12.4659C102.088 12.4938 103.26 12.0425 104.021 11.1118C104.798 10.1814 105.193 8.92422 105.208 7.34029C105.222 5.88436 104.849 4.66963 104.09 3.69611C103.331 2.72259 102.192 2.22242 100.672 2.19558L97.6968 2.14303L97.6007 12.4146L100.504 12.4659ZM72.1129 15.3891L70.5296 15.6703L70.6869 17.3429L76.2873 16.3485L76.13 14.6759L74.5232 14.9612L75.3361 11.3429L79.944 10.5247L81.4232 13.736L79.7455 14.0339L79.9028 15.7065L85.834 14.6534L85.6767 12.9808L84.1644 13.2493L79.4218 3.69374L80.8869 3.43361L80.7296 1.76099L73.2388 3.09104L73.3961 4.76366L74.8375 4.50772L72.1129 15.3891ZM77.1083 4.12882L79.3209 9.00766L75.6818 9.65381L76.9665 4.154L77.1083 4.12882ZM55.6974 22.9051C54.3087 23.4395 53.0236 23.6129 51.8419 23.4251C50.6571 23.2217 49.6665 22.7069 48.87 21.8806C48.0736 21.0543 47.5443 19.9984 47.2823 18.7128C47.0203 17.4272 47.0718 16.1393 47.4369 14.8491C47.802 13.5589 48.4523 12.4041 49.3879 11.3847C50.3235 10.3652 51.4856 9.58829 52.8744 9.05385C54.2481 8.52516 55.5274 8.36253 56.7122 8.56594C57.8971 8.76936 58.8893 9.29205 59.6889 10.134C60.4854 10.9603 61.0146 12.0162 61.2766 13.3018C61.5387 14.5874 61.4871 15.8753 61.1221 17.1655C60.7687 18.4342 60.1242 19.5783 59.1887 20.5978C58.2499 21.6016 57.0861 22.3707 55.6974 22.9051ZM55.3188 21.0473C56.1998 20.7082 56.9241 20.1928 57.4916 19.501C58.0709 18.7877 58.454 17.9809 58.6409 17.0805C58.8427 16.1744 58.8461 15.2432 58.6512 14.2868C58.4563 13.3305 58.1014 12.5372 57.5864 11.9069C57.0864 11.2708 56.4557 10.8626 55.6943 10.6823C54.9446 10.4805 54.1292 10.5491 53.2482 10.8881C52.3523 11.2329 51.6221 11.7591 51.0578 12.4666C50.4902 13.1584 50.1071 13.9652 49.9085 14.887C49.7216 15.7874 49.7257 16.7158 49.9206 17.6721C50.1155 18.6285 50.463 19.4247 50.963 20.0607C51.4779 20.691 52.1086 21.0992 52.8551 21.2853C53.6016 21.4714 54.4228 21.3921 55.3188 21.0473ZM32.7139 32.747L31.2455 33.6115L31.7456 35.2154L41.5281 29.456L39.8421 24.0488L38.1255 25.0594L39.3114 28.8628L35.0096 31.3955L31.9306 21.5203L33.399 20.6558L32.9203 19.1207L27.6878 22.2013L28.1665 23.7364L29.6349 22.8719L32.7139 32.747ZM100.721 124.376L100.021 198.36L97.021 198.331L97.7366 122.663L64.7855 190.784L62.0849 189.477L94.9007 121.636L37.1717 170.079L35.2432 167.781L92.0929 120.076L21.9835 144.412L20.9997 141.578L90.579 117.426L16.9288 116.913L16.9497 113.913L91.6408 114.433L22.6492 85.8121L23.7987 83.0411L92.7956 111.665L39.6807 59.1415L41.7901 57.0083L95.6513 110.269L70.0343 38.9845L72.8575 37.9699L97.8791 107.598L98.5787 33.6138L101.579 33.6422L100.863 109.31L133.814 41.1898L136.515 42.4961L103.699 110.337L161.428 61.895L163.356 64.1931L106.507 111.897L176.616 87.5611L177.6 90.3952L108.02 114.548L181.671 115.061L181.65 118.061L106.959 117.54L175.95 146.161L174.801 148.933L105.804 120.309L158.919 172.832L156.809 174.965L102.948 121.704L128.565 192.989L125.742 194.004L100.721 124.376ZM2.86091 57.4833L4.65725 55.6482L5.845 57.8434L4.04866 59.6786L2.86091 57.4833ZM13.8097 46.6419L11.88 48.3364L12.9326 50.5996L14.8622 48.9052L13.8097 46.6419ZM21.3751 40.1101L23.4324 38.5732L24.3506 40.8941L22.2933 42.431L21.3751 40.1101ZM117.299 14.0417L115.621 13.7438L115.463 15.4164L121.466 16.4822L121.623 14.8095L119.945 14.5116L120.907 4.28476L122.585 4.58266L122.742 2.91004L116.74 1.84431L116.582 3.51693L118.26 3.81483L117.299 14.0417ZM129.702 16.6913L131.357 17.2657L133.214 7.16292L131.559 6.58854L131.863 4.93622L136.42 6.51773L141.269 18.8472L142.805 10.4912L141.105 9.90107L141.408 8.24875L146.532 10.027L146.229 11.6793L144.619 11.1207L142.459 22.8758L139.942 22.0024L134.792 8.81525L133.126 17.8794L134.826 18.4696L134.523 20.1219L129.399 18.3437L129.702 16.6913ZM166.124 28.5136L166.359 27.7322L161.768 25.1246L161.264 26.8023L163.622 28.1417C163.216 29.2745 162.577 29.9345 161.707 30.1217C160.854 30.3014 159.881 30.0984 158.787 29.5127C157.493 28.7779 156.599 27.7412 156.106 26.4026C155.627 25.0719 155.622 23.6251 156.092 22.0623C156.539 20.5761 157.277 19.6136 158.304 19.1748C159.346 18.744 160.528 18.9039 161.85 19.6546C162.754 20.1682 163.471 20.8444 164.001 21.6834C164.53 22.5223 164.844 23.4812 164.943 24.56L166.425 25.4015L167.704 21.1497L165.993 20.1778L165.523 21.7406C165.248 20.9208 164.816 20.1641 164.226 19.4705C163.655 18.7695 162.932 18.1701 162.055 17.6722C160.803 16.9611 159.605 16.6124 158.46 16.6262C157.32 16.6247 156.325 16.9831 155.473 17.7015C154.622 18.4199 153.998 19.4379 153.602 20.7556C153.201 22.0886 153.11 23.4185 153.33 24.7454C153.564 26.0801 154.09 27.3114 154.907 28.4394C155.738 29.5752 156.822 30.5224 158.157 31.281C160.049 32.3556 161.702 32.6572 163.114 32.1857C164.531 31.6988 165.534 30.4748 166.124 28.5136ZM172.762 37.9714L174.819 39.5082L173.901 41.8292L171.844 40.2923L172.762 37.9714ZM184.255 47.5767L182.325 45.8823L181.273 48.1455L183.202 49.8399L184.255 47.5767ZM191.431 54.7167L193.227 56.5519L192.04 58.7472L190.243 56.912L191.431 54.7167ZM197.991 176.644L199.829 174.851L198.598 172.68L196.76 174.473L197.991 176.644ZM190.357 183.967L188.389 185.617L187.296 183.373L189.264 181.723L190.357 183.967ZM178.302 193.656L180.393 192.165L179.437 189.859L177.346 191.35L178.302 193.656ZM170.027 198.642L168.542 199.477L171.754 209.309L173.24 208.475L173.739 210.003L168.445 212.977L167.946 211.449L169.432 210.614L166.219 200.782L161.867 203.227L163.104 207.014L161.368 207.99L159.609 202.606L169.505 197.045L170.027 198.642ZM148.581 208.743C147.387 208.54 146.092 208.695 144.696 209.208C143.299 209.721 142.131 210.471 141.191 211.457C140.255 212.459 139.614 213.589 139.267 214.847C138.909 216.126 138.866 217.407 139.14 218.69C139.414 219.973 139.956 221.031 140.766 221.864C141.579 222.713 142.584 223.247 143.78 223.465C144.977 223.684 146.266 223.54 147.648 223.032C149.045 222.519 150.211 221.762 151.147 220.76C152.083 219.758 152.73 218.617 153.089 217.338C153.447 216.059 153.49 214.778 153.216 213.495C152.942 212.212 152.4 211.154 151.59 210.321C150.781 209.487 149.777 208.961 148.581 208.743ZM142.911 212.572C143.479 211.891 144.205 211.388 145.092 211.062C145.993 210.731 146.82 210.663 147.575 210.859C148.329 211.054 148.969 211.469 149.493 212.103C150.002 212.743 150.359 213.54 150.562 214.495C150.766 215.449 150.777 216.373 150.596 217.267C150.402 218.182 150.022 218.979 149.455 219.66C148.891 220.357 148.158 220.87 147.257 221.201C146.371 221.527 145.549 221.584 144.791 221.373C144.022 221.183 143.382 220.768 142.873 220.128C142.349 219.494 141.985 218.7 141.781 217.745C141.577 216.791 141.574 215.864 141.771 214.965C141.952 214.071 142.333 213.273 142.911 212.572ZM128.838 216.532L127.253 216.801L124.568 227.649L126.012 227.404L126.177 229.076L118.676 230.347L118.511 228.675L119.978 228.427L115.185 218.846L113.67 219.102L113.505 217.431L119.445 216.424L119.61 218.096L117.929 218.381L119.425 221.6L124.04 220.818L124.839 217.21L123.23 217.483L123.065 215.811L128.673 214.86L128.838 216.532ZM120.056 223.12L122.294 228.01L122.436 227.986L123.7 222.502L120.056 223.12ZM103.381 219.833L105.06 219.863L105.076 218.183L97.4212 218.047C95.8854 218.02 94.5869 218.285 93.5257 218.843C92.4643 219.416 91.6648 220.218 91.1272 221.249C90.5895 222.279 90.3143 223.483 90.3014 224.858C90.2902 226.058 90.5438 227.167 91.0623 228.184C91.5807 229.218 92.3729 230.048 93.4391 230.675C94.5051 231.318 95.7979 231.652 97.3177 231.679L104.949 231.814L104.964 230.134L103.284 230.104L103.381 219.833ZM94.2727 221.088C95.0334 220.158 96.2056 219.706 97.7894 219.734L100.693 219.785L100.597 230.057L97.6214 230.004C96.1016 229.978 94.9623 229.477 94.2034 228.504C93.4445 227.53 93.0718 226.316 93.0854 224.86C93.1002 223.276 93.496 222.019 94.2727 221.088ZM81.6143 218.473L79.9342 218.188L78.9269 228.411L80.607 228.695L80.4423 230.367L74.4319 229.349L74.5967 227.677L76.2767 227.962L77.284 217.739L75.6039 217.454L75.7687 215.783L81.779 216.801L81.6143 218.473ZM65.1784 214.999L66.8416 215.55L67.1592 213.9L62.0103 212.195L61.6926 213.845L63.4013 214.41L61.6585 223.46L56.5651 210.392L54.0362 209.554L51.776 221.29L50.1584 220.755L49.8407 222.404L54.9897 224.11L55.3074 222.46L53.5987 221.894L55.2053 213.551L60.002 225.77L64.5814 227.286L64.8991 225.636L63.2359 225.086L65.1784 214.999ZM28.8797 204.785L29.125 204.007C29.7407 202.054 30.7702 200.825 32.2137 200.321C33.6524 199.832 35.3283 200.106 37.2413 201.143C38.5917 201.875 39.6843 202.798 40.5192 203.912C41.34 205.017 41.8635 206.23 42.0899 207.55C42.3022 208.862 42.1991 210.182 41.7806 211.51C41.367 212.822 40.7248 213.841 39.8539 214.566C38.9831 215.291 37.9688 215.661 36.811 215.677C35.6483 215.708 34.434 215.38 33.168 214.694C32.2818 214.214 31.5516 213.63 30.9774 212.944C30.3844 212.265 29.9517 211.521 29.6796 210.713L29.189 212.269L27.4588 211.332L28.7935 207.097L30.2916 207.909C30.3832 208.977 30.6944 209.923 31.2253 210.747C31.7562 211.57 32.4788 212.23 33.3932 212.726C34.7295 213.45 35.9286 213.591 36.9905 213.148C38.0383 212.697 38.7955 211.732 39.262 210.252C39.7526 208.695 39.76 207.261 39.2841 205.949C38.7942 204.629 37.8952 203.615 36.587 202.906C35.4802 202.342 34.4932 202.155 33.6259 202.346C32.7398 202.545 32.0859 203.209 31.6641 204.338L34.0484 205.63L33.5217 207.301L28.8797 204.785ZM19.5884 192.865L21.6794 194.355L22.6352 192.05L20.5442 190.559L19.5884 192.865ZM11.6315 186.472L9.66324 184.822L10.7566 182.579L12.7249 184.228L11.6315 186.472ZM0.218506 175.873L2.05723 177.665L3.28823 175.494L1.44951 173.701L0.218506 175.873Z" fill="#F2C296"/>
</svg>
