
<svg width="80" height="80" fill="none" viewBox="0 0 233 240" xmlns="http://www.w3.org/2000/svg">
<path d="m117.43 12.089 1.751 0.0731 0.282-10.292-3.261-0.13633-0.088 3.1908-1.87-0.07819 0.133-4.8462 12.853 0.53732-0.133 4.8462-1.846-0.07719 0.087-3.1908-3.213-0.13433-0.283 10.292 1.751 0.0732-0.046 1.6794-6.163-0.2577 0.046-1.6793zm-13.17-4.3814c-0.771-0.52163-1.978-0.82076-3.622-0.89738l-0.6762-0.0264c-0.951-0.04447-1.6637-0.20297-2.1381-0.4755-0.4744-0.27252-0.7387-0.70355-0.7928-1.2931-0.0512-0.55765 0.1066-1.0235 0.4735-1.3976 0.3654-0.39001 0.8968-0.63378 1.594-0.73131 1.0456-0.14631 1.8516-0.01704 2.4186 0.3878 0.566 0.3889 0.967 0.91372 1.204 1.5745l1.711-0.23941-0.355-3.8717-1.854 0.25936 0.114 1.2428c-0.44-0.42257-0.989-0.71698-1.646-0.88324-0.658-0.18219-1.384-0.21787-2.1763-0.10704-1.3152 0.18399-2.3374 0.67396-3.0668 1.4699-0.7136 0.79373-1.0155 1.7881-0.9057 2.9831 0.2004 2.1828 1.7595 3.3445 4.6773 3.485l0.9185 0.04094c0.757 0.02328 1.341 0.09484 1.753 0.21468 0.427 0.1017 0.741 0.29172 0.943 0.57005 0.217 0.2602 0.348 0.6373 0.393 1.1312 0.057 0.6214-0.104 1.1361-0.484 1.5443-0.381 0.3922-0.929 0.6382-1.642 0.738-1.046 0.1463-1.9434-0.0186-2.6932-0.4946-0.7514-0.492-1.2566-1.1879-1.5158-2.0876l-1.7589 0.246 0.4214 4.5887 1.9252-0.2693-0.147-1.6013c0.4646 0.516 1.0768 0.8903 1.8364 1.1229 0.7582 0.2167 1.5489 0.2674 2.3729 0.1521 0.919-0.1285 1.696-0.4146 2.329-0.8583 0.633-0.4436 1.096-1.0005 1.387-1.6706 0.308-0.6724 0.425-1.3989 0.354-2.1797-0.116-1.2587-0.567-2.1477-1.352-2.6672zm-29.553 12.372 1.6193-0.5308-2.1604-10.042-1.6193 0.53071-0.3533-1.6424 11.608-3.805 0.8985 4.1764-1.7561 0.57561-0.5451-2.534-5.6788 1.8614 0.8632 4.0122 3.3069-1.0839-0.3231-1.5016 1.2772-0.41866 0.9944 4.6223-1.2544 0.4111-0.323-1.5016-3.3297 1.0914 0.9489 4.4111 5.7928-1.8988-0.5754-2.6748 1.756-0.5756 0.9288 4.3172-11.722 3.8424-0.3534-1.6424zm-10.514 6.1676c0.7723-1.2158 1.1351-2.6129 1.0886-4.1912l-2.0734 0.1893c0.0592 1.193-0.1587 2.2223-0.6537 3.0881-0.5004 0.8507-1.2138 1.5296-2.14 2.0368-0.8139 0.4458-1.6167 0.6421-2.4084 0.5891-0.7776-0.0608-1.4815-0.3601-2.1115-0.8981-0.6214-0.5607-1.108-1.3304-1.4598-2.3091-0.3301-0.9185-0.4496-1.8352-0.3585-2.7501 0.0857-0.9299 0.3782-1.7749 0.8776-2.5349 0.4941-0.7751 1.1761-1.4009 2.0462-1.8774 0.9122-0.4995 1.7528-0.7075 2.5218-0.624 0.7776 0.0607 1.5393 0.4275 2.285 1.1003l1.4152-0.829-1.4774-4.1106-1.6419 0.8992 0.5844 1.6261c-0.6126-0.3493-1.3293-0.4974-2.15-0.4444-0.8067 0.0453-1.6521 0.31-2.5362 0.7941-1.235 0.6763-2.2365 1.5581-3.0046 2.6455-0.7541 1.0797-1.2164 2.27-1.3871 3.5708-0.1567 1.2932-0.0023 2.5872 0.4631 3.8821 0.4708 1.31 1.1611 2.3195 2.071 3.0286s1.9491 1.0771 3.1177 1.104c1.1826 0.0191 2.3983-0.3133 3.6473-0.9972 1.426-0.7989 2.5209-1.7949 3.2846-2.988zm-29.873 20.157 1.247-1.0153-1.9375-11.424-1.1353 0.9243-0.7917-1.4817 5.8999-4.8034 0.7918 1.4817-1.154 0.9395 7.8189 6.6354 1.1911-0.9698 0.7918 1.4817-4.6716 3.8033-0.7917-1.4817 1.3214-1.0759-2.5294-2.2845-3.6293 2.9548 0.724 3.7543 1.2656-1.0304 0.7918 1.4817-4.411 3.5912-0.7918-1.4817zm4.9206-10.385-3.813-3.4873-0.1117 0.0909 1.0585 5.7298 2.8662-2.3334zm-18.776 26.025-1.1296 1.2759 1.0005 1.3496 4.0728-4.6002-1.0005-1.3496-1.1773 1.3298-6.1172-8.252 1.7819-2.0125c0.5303-0.599 1.0577-0.8995 1.5823-0.9017 0.5246-0.0021 1.006 0.2925 1.4443 0.8838 0.4669 0.6298 0.6699 1.2979 0.609 2.0043-0.0705 0.6936-0.4027 1.3758-0.9966 2.0467l-0.9705 1.0961 1.0005 1.3496 1.1136-1.2578c1.1561-1.3058 1.8215-2.5769 1.9962-3.8133 0.1853-1.2484-0.1317-2.4253-0.9512-3.5306-0.7813-1.054-1.6696-1.5031-2.6648-1.3473-0.9846 0.1439-2.0602 0.8747-3.2269 2.1924l-4.6137 5.2111 1.0005 1.3496 1.1295-1.2758 6.1172 8.2519zm-11.526 8.0713c-0.83654 0.1589-1.8112 0.812-2.9239 1.9591l-0.45452 0.4761c-0.64373 0.6634-1.2074 1.0631-1.691 1.199-0.48364 0.136-0.9343-0.0058-1.352-0.4253-0.39512-0.3969-0.59549-0.8757-0.60112-1.4364-0.01692-0.5721 0.16836-1.152 0.55582-1.7398 0.5812-0.8817 1.1864-1.3728 1.8157-1.4735 0.61797-0.1121 1.2181 0.0022 1.8004 0.3428l0.95105-1.4427-2.7432-2.7552-1.0303 1.5629 0.88054 0.8844c-0.55882-0.0062-1.1047 0.1672-1.6375 0.5202-0.54416 0.3415-1.0364 0.8463-1.4767 1.5142-0.7309 1.1088-1.0738 2.2409-1.0287 3.3964 0.05393 1.1422 0.50423 2.1384 1.3509 2.9888 1.5466 1.5534 3.3087 1.3138 5.2864-0.7186l0.62047-0.6424c0.5042-0.5371 0.92846-0.9103 1.2728-1.1196 0.34184-0.2339 0.66844-0.3166 0.9798-0.2482 0.30887 0.0438 0.63825 0.2415 0.98825 0.593 0.4403 0.4422 0.6701 0.9616 0.6895 1.5584 0.0081 0.5854-0.186 1.1787-0.5822 1.7799-0.5812 0.8816-1.2688 1.4123-2.0626 1.5919-0.80516 0.1682-1.5836-3e-3 -2.3352-0.5137l-0.97747 1.4829 3.2512 3.2654 1.0699-1.6231-1.1345-1.1395c0.63536 0.0609 1.2741-0.0969 1.9163-0.4733 0.6308-0.3877 1.1752-0.9289 1.6331-1.6235 0.5108-0.7748 0.8269-1.5675 0.9484-2.378s0.059-1.5838-0.1876-2.3199c-0.2377-0.7495-0.6331-1.402-1.1863-1.9576-0.8918-0.8957-1.7604-1.2574-2.6058-1.0851zm127.4-56.234-1.563-0.3749-0.261 1.6596 5.531 1.3261 0.261-1.6595-1.587-0.3805 1.654-3.1217 4.551 1.0911 0.61 3.6645-1.657-0.3973-0.261 1.6596 5.858 1.4045 0.261-1.6596-1.494-0.3581-2.137-11.042 1.447 0.34693 0.261-1.6596-7.399-1.7738-0.261 1.6596 1.424 0.34134-5.238 9.2742zm7.475-8.7133 0.894 5.5531-3.594-0.86168 2.56-4.725 0.14 0.03357zm28.326 15.769-0.236 0.7811c-0.593 1.9602-1.623 3.2305-3.09 3.8108-1.463 0.5649-3.182 0.392-5.158-0.5189-1.395-0.6429-2.53-1.4888-3.405-2.5377-0.86-1.0421-1.418-2.2068-1.675-3.4941-0.241-1.2806-0.161-2.5871 0.242-3.9194 0.399-1.3171 1.036-2.3581 1.913-3.1229 0.878-0.7649 1.908-1.1886 3.092-1.2711 1.189-0.0979 2.437 0.1546 3.745 0.7574 0.915 0.4219 1.673 0.9544 2.273 1.5975 0.619 0.6344 1.076 1.3422 1.369 2.1231l0.473-1.5621 1.787 0.8238-1.285 4.2498-1.548-0.7133c-0.114-1.047-0.45-1.961-1.008-2.7419-0.559-0.7809-1.31-1.3891-2.255-1.8244-1.38-0.6362-2.609-0.7054-3.687-0.2075-1.063 0.5045-1.82 1.4996-2.269 2.9851-0.473 1.5621-0.453 2.9758 0.058 4.241 0.526 1.2719 1.465 2.2193 2.816 2.8421 1.143 0.4918 2.156 0.6184 3.039 0.38 0.903-0.2471 1.559-0.9392 1.969-2.0763l-2.463-1.1352 0.508-1.677 4.795 2.2101zm7.389 10.931-1.392-0.9821-0.706 1.5246 4.943 3.4858 0.705-1.5245-1.373-0.9683 4.315-9.3218 2.55 1.7983c0.628 0.4427 1.018 0.9489 1.17 1.5187 0.173 0.5645 0.131 1.1226-0.124 1.6744-0.269 0.5808-0.655 0.9446-1.156 1.0916-0.502 0.147-1.132-0.047-1.89-0.5818l-1.608-1.1343-0.716 1.5463 1.177 0.83 0.323 7.4507 3.02 2.1302 0.706-1.5246-1.471-1.0374-0.359-5.8002c1.953 0.8767 3.35 0.4075 4.19-1.4074 0.524-1.1326 0.548-2.2329 0.071-3.3011-0.457-1.0735-1.32-2.0575-2.588-2.952l-6.158-4.3435-0.706 1.5246 1.392 0.9821-4.315 9.3217zm16.567 13.019 1.137 1.137 8.284-5.9403-1.035-1.0352 0.921-1.4045 5.38 5.3795-0.922 1.4045-1.052-1.0521-2.92 11.303 1.086 1.0861-0.922 1.4046-4.26-4.2596 0.922-1.4045 1.205 1.2049 1.051-3.7008-3.309-3.3092-2.698 2.0547 1.154 1.154-0.921 1.4045-4.022-4.0219 0.921-1.4046zm9.418 2.4388 1.619-5.5929-0.102-0.1018-4.13 3.0812 2.613 2.6135zm8.671 17.746-0.946-1.3596-1.153 1.2218 3.042 4.3742 1.153-1.2218-0.918-1.3201 6.639-7.0341-4.634 11.686 0.576 0.8275 10.019-3.9424-6.639 7.0341-0.918-1.3202-1.153 1.2219 3.316 4.7682 1.153-1.2218-0.945-1.3595 7.05-7.4705 0.945 1.3596 1.153-1.2218-3.014-4.3348-8.194 3.2751 3.768-9.6394-3.042-4.3743-1.153 1.2218 0.945 1.3596-7.05 7.4705zm12.097 103.75c-1.125 1.142-2.11 1.793-2.956 1.952-0.854 0.173-1.73-0.184-2.63-1.072-0.558-0.551-0.956-1.199-1.195-1.943-0.248-0.73-0.31-1.499-0.187-2.304 0.124-0.805 0.445-1.593 0.961-2.364 0.464-0.691 1.014-1.23 1.652-1.616 0.649-0.376 1.294-0.534 1.936-0.474l-1.144-1.13 1.082-1.615 3.28 3.238-0.99 1.475c-0.758-0.506-1.544-0.675-2.357-0.506-0.802 0.18-1.497 0.709-2.086 1.586-0.401 0.598-0.597 1.188-0.59 1.769 0.019 0.593 0.25 1.109 0.694 1.547 0.353 0.348 0.686 0.544 0.998 0.587 0.314 0.067 0.644-0.015 0.989-0.249 0.348-0.208 0.777-0.58 1.287-1.114l0.628-0.64c2-2.023 3.78-2.264 5.34-0.724 0.854 0.843 1.307 1.832 1.36 2.966 0.044 1.148-0.304 2.273-1.043 3.376-0.446 0.665-0.944 1.167-1.494 1.508-0.538 0.351-1.09 0.525-1.654 0.52l0.888 0.876-1.043 1.555-2.767-2.732 0.963-1.435c0.588 0.338 1.193 0.45 1.818 0.337 0.635-0.101 1.247-0.59 1.836-1.467 0.392-0.585 0.58-1.161 0.563-1.73-5e-3 -0.557-0.206-1.032-0.605-1.425-0.421-0.416-0.876-0.556-1.365-0.42-0.488 0.136-1.058 0.534-1.709 1.194l-0.46 0.474zm-14.466 9.719 1.141-1.266-1.012-1.341-4.112 4.565 1.012 1.341 1.188-1.319 6.185 8.201-1.799 1.997c-0.535 0.595-1.068 0.893-1.598 0.894-0.53 2e-3 -1.016-0.291-1.459-0.879-0.472-0.626-0.678-1.289-0.617-1.991 0.071-0.689 0.406-1.366 1.006-2.032l0.98-1.088-1.012-1.341-1.124 1.248c-1.167 1.296-1.839 2.558-2.015 3.786-0.186 1.24 0.135 2.409 0.963 3.507 0.79 1.048 1.688 1.495 2.693 1.341 0.995-0.142 2.081-0.867 3.259-2.175l4.658-5.171-1.011-1.342-1.141 1.267-6.185-8.202zm-13.836 15.308-1.256 1.004 1.983 11.365 1.143-0.915 0.802 1.476-5.94 4.754-0.802-1.476 1.162-0.93-7.904-6.626-1.2 0.96-0.802-1.476 4.703-3.764 0.803 1.476-1.331 1.065 2.558 2.28 3.654-2.924-0.74-3.735-1.274 1.02-0.803-1.476 4.441-3.554 0.803 1.476zm-4.939 10.306 3.855 3.481 0.113-0.09-1.082-5.7-2.886 2.309zm-24.959 9.472c-0.773 1.207-1.133 2.597-1.081 4.169l2.085-0.178c-0.064-1.188 0.152-2.213 0.647-3.073 0.5-0.844 1.216-1.517 2.145-2.018 0.818-0.439 1.624-0.631 2.421-0.574 0.782 0.064 1.491 0.366 2.127 0.905 0.627 0.562 1.119 1.331 1.476 2.308 0.335 0.917 0.458 1.831 0.37 2.741-0.083 0.926-0.375 1.767-0.874 2.521-0.495 0.77-1.178 1.39-2.052 1.86-0.916 0.493-1.76 0.696-2.534 0.609-0.783-0.065-1.55-0.434-2.302-1.108l-1.421 0.818 1.5 4.103 1.649-0.888-0.594-1.622c0.618 0.351 1.339 0.502 2.164 0.453 0.811-0.041 1.661-0.3 2.548-0.778 1.24-0.667 2.244-1.541 3.013-2.62 0.755-1.071 1.216-2.255 1.383-3.55 0.153-1.287-6e-3 -2.577-0.479-3.869-0.478-1.308-1.176-2.317-2.093-3.028-0.918-0.711-1.964-1.083-3.14-1.116-1.189-0.025-2.411 0.3-3.665 0.975-1.431 0.789-2.529 1.775-3.293 2.96zm-10.438 6.022-1.622 0.523 2.196 10.034 1.622-0.523 0.359 1.642-11.627 3.746-0.913-4.173 1.759-0.567 0.554 2.532 5.688-1.833-0.878-4.009-3.312 1.067 0.328 1.501-1.279 0.412-1.011-4.619 1.257-0.404 0.328 1.5 3.335-1.074-0.964-4.408-5.803 1.869 0.585 2.673-1.759 0.567-0.944-4.314 11.742-3.783 0.359 1.641zm-29.514 12.229c0.772 0.523 1.98 0.825 3.625 0.906l0.677 0.027c0.952 0.047 1.665 0.207 2.14 0.481 0.475 0.273 0.74 0.705 0.795 1.294 0.052 0.558-0.105 1.023-0.472 1.396-0.365 0.389-0.896 0.632-1.593 0.728-1.046 0.143-1.853 0.012-2.421-0.394-0.566-0.39-0.969-0.915-1.207-1.576l-1.712 0.235 0.362 3.871 1.854-0.255-0.116-1.242c0.441 0.423 0.991 0.719 1.648 0.886 0.66 0.184 1.386 0.221 2.178 0.112 1.316-0.181 2.338-0.668 3.066-1.462 0.713-0.792 1.014-1.785 0.902-2.98-0.204-2.182-1.765-3.347-4.685-3.494l-0.919-0.043c-0.757-0.025-1.342-0.098-1.754-0.219-0.427-0.103-0.742-0.293-0.945-0.572-0.217-0.261-0.348-0.638-0.395-1.132-0.058-0.621 0.103-1.135 0.482-1.542 0.381-0.392 0.928-0.636 1.642-0.734 1.046-0.144 1.944 0.023 2.695 0.5 0.753 0.494 1.259 1.191 1.52 2.091l1.76-0.242-0.429-4.588-1.926 0.264 0.15 1.601c-0.466-0.516-1.079-0.892-1.839-1.126-0.759-0.219-1.551-0.271-2.375-0.158-0.919 0.127-1.696 0.411-2.329 0.853s-1.094 0.998-1.385 1.667c-0.307 0.671-0.424 1.397-0.351 2.178 0.118 1.258 0.57 2.148 1.357 2.669zm-13.139-4.395-1.751-0.072-0.287 10.292 3.261 0.134 0.089-3.19 1.871 0.076-0.136 4.847-12.853-0.529 0.135-4.846 1.847 0.076-0.089 3.191 3.213 0.132 0.287-10.292-1.75-0.072 0.047-1.679 6.163 0.253-0.047 1.679zm-18.878-1.751 1.5651 0.369 0.2656-1.659-5.5364-1.305-0.2655 1.659 1.5885 0.374-1.6638 3.125-4.5552-1.074-0.6022-3.658 1.6586 0.39 0.2655-1.658-5.8633-1.382-0.2656 1.659 1.4951 0.352 2.1139 11.024-1.4484-0.342-0.2655 1.659 7.4051 1.745 0.2656-1.658-1.425-0.336 5.2679-9.284zm-7.5067 8.732-0.882-5.545 3.5974 0.848-2.5752 4.73-0.1402-0.033zm-28.325-15.58 0.2401-0.779c0.6023-1.958 1.6413-3.23 3.1169-3.816 1.4709-0.57 3.1974-0.407 5.1795 0.491 1.3991 0.634 2.5363 1.472 3.4115 2.513 0.8606 1.035 1.4175 2.193 1.6705 3.475 0.2385 1.275 0.1531 2.578-0.2563 3.909-0.4048 1.315-1.049 2.356-1.9327 3.123s-1.9203 1.195-3.1099 1.283c-1.1943 0.104-2.4473-0.141-3.759-0.736-0.9181-0.416-1.6776-0.943-2.2783-1.581-0.62-0.629-1.0761-1.332-1.3684-2.11l-0.48 1.56-1.7926-0.812 1.3059-4.243 1.5522 0.703c0.1106 1.043 0.4452 1.953 1.0035 2.728 0.5584 0.776 1.3113 1.378 2.2586 1.808 1.3845 0.627 2.619 0.69 3.7034 0.188 1.0698-0.509 1.8329-1.505 2.2894-2.988 0.48-1.56 0.4654-2.969-0.044-4.228-0.5239-1.265-1.4635-2.205-2.8189-2.819-1.1462-0.485-2.1634-0.606-3.0517-0.363-0.9075 0.25-1.5692 0.944-1.9852 2.08l2.4703 1.119-0.5153 1.674-4.8095-2.179zm-7.3111-10.776 1.4003 0.971 0.7158-1.52-4.9703-3.446-0.7158 1.52 1.3806 0.957-4.3763 9.293-2.5641-1.777c-0.6311-0.438-1.0227-0.94-1.1747-1.506-0.1719-0.561-0.1283-1.116 0.1307-1.666 0.2727-0.579 0.662-0.943 1.1679-1.092 0.506-0.148 1.1403 0.042 1.9029 0.571l1.6174 1.121 0.726-1.542-1.1835-0.82-0.3036-7.411-3.0374-2.106-0.7158 1.52 1.4793 1.026 0.3444 5.768c-1.9655-0.863-3.3743-0.39-4.2264 1.419-0.5317 1.129-0.5589 2.224-0.0816 3.285 0.4574 1.066 1.3238 2.041 2.5992 2.925l6.1932 4.294 0.7158-1.52-1.4004-0.971 4.3764-9.293zm-16.547-12.744-1.1468-1.127-8.3739 5.919 1.0441 1.026-0.9329 1.397-5.4257-5.333 0.9328-1.397 1.0612 1.043 2.9652-11.235-1.0954-1.077 0.9329-1.397 4.2961 4.223-0.9329 1.397-1.2152-1.194-1.067 3.678 3.3376 3.281 2.7273-2.047-1.1639-1.144 0.9328-1.397 4.0565 3.987-0.9328 1.397zm-9.5081-2.403-1.6424 5.56 0.1027 0.1 4.1756-3.069-2.6359-2.591zm-8.6012-17.401 0.9564 1.352 1.1636-1.212-3.0773-4.349-1.1635 1.212 0.9287 1.312-6.6985 6.977 4.6687-11.6-0.5822-0.823-10.116 3.901 6.6985-6.977 0.9287 1.312 1.1636-1.211-3.3545-4.742-1.1635 1.212 0.95643 1.352-7.1141 7.41-0.95643-1.352-1.1635 1.212 3.0495 4.31 8.2736-3.241-3.7964 9.569 3.0772 4.35 1.1636-1.212-0.9565-1.352 7.1141-7.41zm89.261-53.131-69.579 24.152 0.9838 2.834 70.11-24.336-56.85 47.705 1.9284 2.298 57.729-48.443-32.816 67.841 2.7007 1.307 32.952-68.121-0.716 75.668 3 0.029 0.7-73.984 25.021 69.628 2.823-1.015-25.617-71.285 53.861 53.261 2.11-2.133-53.115-52.523 68.997 28.623 1.149-2.771-68.991-28.621 74.691 0.521 0.021-3-73.651-0.513 69.58-24.153-0.984-2.8341-70.109 24.336 56.849-47.704-1.928-2.2981-57.729 48.442 32.816-67.841-2.701-1.3063-32.951 68.12 0.716-75.668-3-0.0284-0.7 73.984-25.022-69.628-2.8232 1.0145 25.617 71.285-53.861-53.261-2.1094 2.1332 53.115 52.524-68.997-28.624-1.1495 2.771 68.992 28.621-74.691-0.52-0.0209 3 73.65 0.513z" clip-rule="evenodd" fill="#fff" fill-rule="evenodd"/>
</svg>
